<svg id="svg" version="1.1" xmlns="http://www.w3.org/2000/svg" xmlns:xlink="http://www.w3.org/1999/xlink" width="400" height="400" viewBox="0, 0, 400,400"><g id="svgg"><path id="path0" d="M132.083 73.086 C 107.917 75.654,91.619 92.603,91.619 115.167 C 91.619 138.909,110.008 156.557,135.667 157.439 C 140.608 157.609,142.467 156.882,144.262 154.076 C 147.384 149.195,144.079 143.537,137.878 143.147 C 129.680 142.631,126.105 141.816,121.083 139.321 C 100.665 129.176,100.969 100.531,121.600 90.724 C 124.831 89.189,128.331 88.184,132.917 87.475 C 134.653 87.206,263.456 87.059,267.039 87.321 C 283.596 88.534,292.610 103.790,285.647 118.817 C 283.556 123.329,282.480 124.487,274.250 131.089 C 271.408 133.368,267.208 136.741,264.917 138.584 C 262.625 140.427,257.675 144.402,253.917 147.416 C 250.158 150.431,245.208 154.405,242.917 156.249 C 237.289 160.776,229.667 166.899,223.417 171.916 C 212.037 181.050,199.213 191.361,191.817 197.325 C 185.883 202.109,181.111 205.946,174.083 211.583 C 167.578 216.801,164.020 219.660,154.583 227.250 C 152.292 229.094,146.592 233.672,141.917 237.424 C 106.328 265.986,108.784 263.942,106.197 267.150 C 98.747 276.389,95.938 288.834,98.742 300.170 C 102.455 315.181,114.588 325.383,130.643 326.994 C 133.018 327.232,264.154 327.233,266.833 326.995 C 291.638 324.789,308.394 307.791,308.394 284.833 C 308.394 260.805,289.222 242.736,263.583 242.602 L 260.083 242.583 258.963 243.114 C 254.312 245.317,253.238 251.256,256.848 254.810 C 258.381 256.319,259.629 256.749,262.917 256.901 C 281.896 257.776,294.000 268.653,294.000 284.833 C 294.000 300.435,282.283 311.586,264.750 312.670 C 261.384 312.878,135.408 312.877,132.733 312.669 C 118.466 311.559,109.634 299.882,112.673 286.148 C 114.069 279.838,116.557 276.321,123.649 270.630 C 126.180 268.600,130.519 265.115,133.292 262.886 C 142.584 255.416,148.377 250.762,154.000 246.249 C 157.071 243.785,161.646 240.110,164.167 238.084 C 172.229 231.604,178.778 226.342,184.083 222.083 C 195.694 212.761,202.805 207.047,203.750 206.280 C 205.669 204.723,209.615 201.542,213.917 198.085 C 216.300 196.169,220.313 192.943,222.833 190.916 C 225.354 188.889,230.304 184.914,233.833 182.083 C 240.013 177.125,243.457 174.358,253.333 166.416 C 255.854 164.389,260.804 160.414,264.333 157.583 C 267.862 154.751,272.625 150.927,274.917 149.084 C 277.208 147.241,281.721 143.614,284.944 141.025 C 294.857 133.062,298.776 127.548,301.168 118.202 C 306.813 96.139,292.727 75.745,270.001 73.078 C 267.106 72.738,135.285 72.746,132.083 73.086 M155.750 108.232 C 149.467 110.236,148.848 118.902,154.788 121.715 L 155.917 122.250 188.417 122.333 L 220.917 122.417 215.583 126.676 C 210.662 130.607,207.615 133.035,195.000 143.082 C 192.479 145.090,187.867 148.766,184.750 151.251 C 177.185 157.283,165.207 166.828,160.173 170.837 C 157.930 172.622,152.522 176.933,148.154 180.417 C 140.331 186.656,131.834 193.424,116.091 205.958 C 111.687 209.465,107.655 212.711,107.131 213.173 C 102.349 217.388,105.183 225.359,111.561 225.636 C 114.565 225.766,114.151 226.015,124.000 218.153 C 130.727 212.782,135.873 208.681,147.826 199.163 C 150.068 197.377,155.506 193.044,159.910 189.533 C 164.314 186.021,170.954 180.728,174.667 177.770 C 178.379 174.812,184.942 169.581,189.250 166.145 C 193.558 162.710,199.296 158.137,202.000 155.983 C 233.712 130.726,231.888 132.243,233.210 130.022 C 238.165 121.695,234.188 111.107,225.083 108.389 C 223.775 107.998,156.957 107.848,155.750 108.232 M286.054 174.573 C 284.859 174.947,284.027 175.516,280.167 178.601 C 278.104 180.250,274.542 183.091,272.250 184.916 C 264.528 191.063,258.283 196.039,252.167 200.917 C 248.821 203.585,243.646 207.710,240.667 210.083 C 229.467 219.003,226.906 221.043,220.167 226.418 C 212.003 232.929,204.001 239.305,198.333 243.815 C 196.088 245.602,191.512 249.248,188.167 251.917 C 184.821 254.586,179.121 259.131,175.500 262.016 C 170.594 265.926,168.699 267.538,168.061 268.340 C 161.506 276.591,164.963 288.425,174.833 291.524 L 176.083 291.917 210.167 291.917 L 244.250 291.917 245.368 291.355 C 250.474 288.793,250.865 281.819,246.075 278.740 C 244.280 277.586,246.878 277.667,211.373 277.667 C 191.634 277.667,179.327 277.607,179.361 277.511 C 179.392 277.426,181.329 275.836,183.667 273.978 C 186.004 272.120,191.217 267.967,195.250 264.749 C 199.283 261.532,204.608 257.287,207.083 255.316 C 215.200 248.854,221.487 243.845,227.667 238.916 C 233.570 234.207,242.412 227.160,249.917 221.184 C 251.933 219.578,257.071 215.482,261.333 212.082 C 265.596 208.682,270.771 204.557,272.833 202.915 C 293.512 186.460,293.018 186.857,293.464 186.349 C 298.256 180.903,292.922 172.426,286.054 174.573 " stroke="none" fill="#42a5ee" fill-rule="evenodd"></path><path id="path1" d="M189.500 0.179 C 188.629 0.252,186.679 0.393,185.167 0.492 C 181.538 0.729,176.189 1.257,174.000 1.592 C 173.679 1.642,172.592 1.794,171.583 1.931 C 166.637 2.603,160.355 3.757,155.333 4.914 C 154.157 5.186,153.532 5.335,151.208 5.900 C 148.952 6.448,146.726 7.036,146.417 7.165 C 146.099 7.298,145.547 7.451,143.805 7.888 C 143.378 7.996,142.971 8.140,142.903 8.208 C 142.834 8.277,142.648 8.333,142.490 8.333 C 142.178 8.333,132.705 11.438,131.389 11.972 C 130.946 12.152,129.796 12.581,128.833 12.927 C 127.871 13.272,127.008 13.605,126.917 13.665 C 126.825 13.726,126.375 13.911,125.917 14.076 C 125.458 14.241,124.858 14.475,124.583 14.597 C 124.308 14.719,123.708 14.964,123.250 15.143 C 122.792 15.321,121.917 15.700,121.306 15.984 C 120.696 16.268,120.157 16.500,120.110 16.500 C 120.030 16.500,119.267 16.836,116.770 17.971 C 113.574 19.425,103.980 24.318,102.145 25.431 C 101.629 25.744,101.122 26.000,101.020 26.000 C 100.917 26.000,100.833 26.075,100.833 26.167 C 100.833 26.258,100.752 26.333,100.653 26.333 C 100.402 26.333,91.576 31.681,91.049 32.153 C 90.938 32.252,90.810 32.333,90.765 32.333 C 90.667 32.333,86.665 35.001,86.395 35.246 C 86.292 35.340,86.067 35.513,85.895 35.630 C 84.764 36.403,82.457 38.023,82.287 38.164 C 82.175 38.258,80.961 39.170,79.589 40.191 C 78.217 41.213,77.001 42.131,76.886 42.233 C 76.772 42.334,76.582 42.492,76.464 42.585 C 76.346 42.677,75.725 43.163,75.083 43.664 C 74.442 44.165,73.879 44.617,73.833 44.668 C 73.787 44.719,73.378 45.059,72.923 45.422 C 72.469 45.786,71.976 46.196,71.827 46.333 C 71.679 46.471,71.338 46.764,71.070 46.986 C 70.104 47.784,67.615 49.934,67.002 50.500 C 66.853 50.637,66.361 51.079,65.907 51.481 C 61.881 55.054,55.054 61.881,51.481 65.907 C 51.079 66.361,50.637 66.853,50.500 67.002 C 49.934 67.615,47.784 70.104,46.986 71.070 C 46.764 71.338,46.471 71.679,46.333 71.827 C 46.196 71.976,45.786 72.469,45.422 72.923 C 45.059 73.378,44.719 73.787,44.668 73.833 C 44.617 73.879,44.166 74.442,43.665 75.083 C 43.164 75.725,42.678 76.341,42.585 76.453 C 42.493 76.564,42.328 76.761,42.220 76.891 C 42.112 77.021,41.194 78.242,40.179 79.605 C 39.164 80.968,38.258 82.175,38.164 82.287 C 38.023 82.457,36.403 84.764,35.630 85.895 C 35.513 86.067,35.339 86.292,35.244 86.395 C 35.149 86.499,34.890 86.883,34.669 87.250 C 34.448 87.617,34.221 87.954,34.165 88.000 C 34.108 88.046,33.673 88.683,33.198 89.417 C 32.723 90.150,32.257 90.862,32.163 91.000 C 31.305 92.249,26.521 100.087,26.365 100.500 C 26.313 100.638,25.947 101.284,25.552 101.938 C 25.157 102.591,24.833 103.204,24.833 103.299 C 24.833 103.394,24.777 103.497,24.708 103.528 C 24.494 103.623,19.472 113.515,17.910 116.917 C 16.969 118.967,16.500 120.030,16.500 120.111 C 16.500 120.160,16.394 120.436,16.263 120.725 C 16.133 121.014,15.807 121.738,15.537 122.335 C 15.268 122.931,14.991 123.606,14.920 123.835 C 14.850 124.063,14.739 124.325,14.673 124.417 C 14.608 124.508,14.380 125.071,14.167 125.667 C 13.953 126.263,13.729 126.825,13.667 126.917 C 13.605 127.008,13.271 127.871,12.925 128.833 C 12.578 129.796,12.191 130.820,12.064 131.109 C 11.937 131.397,11.833 131.717,11.833 131.819 C 11.833 131.921,11.758 132.135,11.666 132.294 C 11.414 132.729,8.333 142.153,8.333 142.488 C 8.333 142.647,8.277 142.834,8.208 142.903 C 8.140 142.971,7.996 143.378,7.888 143.805 C 7.451 145.547,7.298 146.099,7.165 146.417 C 7.034 146.732,6.424 149.044,5.891 151.250 C 5.758 151.800,5.540 152.700,5.406 153.250 C 5.180 154.176,5.064 154.688,4.404 157.667 C 3.990 159.534,3.242 163.364,2.907 165.333 C 1.699 172.430,0.906 178.917,0.503 185.000 C 0.409 186.421,0.257 188.558,0.166 189.750 C 0.074 190.942,-0.001 195.554,-0.001 200.000 C -0.001 204.446,0.074 209.058,0.166 210.250 C 0.257 211.442,0.409 213.579,0.503 215.000 C 1.175 225.139,2.950 236.617,5.435 246.875 C 6.015 249.272,6.160 249.858,6.579 251.500 C 6.825 252.463,7.089 253.400,7.165 253.583 C 7.298 253.901,7.451 254.453,7.888 256.195 C 7.996 256.622,8.140 257.029,8.208 257.097 C 8.277 257.166,8.333 257.354,8.333 257.515 C 8.333 257.817,11.677 268.006,12.072 268.909 C 12.195 269.188,12.578 270.204,12.925 271.167 C 13.271 272.129,13.605 272.992,13.665 273.083 C 13.726 273.175,13.911 273.625,14.076 274.083 C 14.241 274.542,14.475 275.142,14.597 275.417 C 14.719 275.692,14.964 276.292,15.143 276.750 C 15.321 277.208,15.700 278.083,15.984 278.694 C 16.268 279.304,16.500 279.843,16.500 279.890 C 16.500 279.970,16.836 280.733,17.971 283.230 C 19.425 286.426,24.318 296.020,25.431 297.855 C 25.744 298.371,26.000 298.878,26.000 298.980 C 26.000 299.083,26.075 299.167,26.167 299.167 C 26.258 299.167,26.333 299.248,26.333 299.347 C 26.333 299.598,31.681 308.424,32.153 308.951 C 32.252 309.062,32.333 309.190,32.333 309.235 C 32.333 309.333,35.001 313.335,35.246 313.605 C 35.340 313.708,35.513 313.933,35.630 314.105 C 36.403 315.236,38.023 317.543,38.164 317.713 C 38.258 317.825,39.170 319.039,40.191 320.411 C 41.213 321.783,42.131 322.999,42.233 323.114 C 42.334 323.228,42.492 323.418,42.585 323.536 C 42.677 323.654,43.163 324.275,43.664 324.917 C 44.165 325.558,44.617 326.121,44.668 326.167 C 44.719 326.212,45.059 326.622,45.422 327.077 C 45.786 327.531,46.196 328.024,46.333 328.173 C 46.471 328.321,46.764 328.662,46.986 328.930 C 47.784 329.896,49.934 332.385,50.500 332.998 C 50.637 333.147,51.079 333.639,51.482 334.093 C 55.123 338.193,61.837 344.908,65.907 348.519 C 66.361 348.921,66.853 349.363,67.002 349.500 C 67.615 350.066,70.104 352.216,71.070 353.014 C 71.338 353.236,71.679 353.529,71.827 353.667 C 71.976 353.804,72.469 354.214,72.923 354.578 C 73.378 354.941,73.787 355.281,73.833 355.332 C 73.899 355.405,75.495 356.668,76.417 357.376 C 76.508 357.446,76.846 357.727,77.167 357.999 C 77.487 358.272,77.801 358.496,77.863 358.497 C 77.925 358.499,78.095 358.619,78.240 358.764 C 78.385 358.908,79.309 359.619,80.293 360.343 C 81.278 361.067,82.175 361.737,82.287 361.832 C 82.456 361.975,84.696 363.551,85.895 364.370 C 86.067 364.487,86.292 364.661,86.395 364.756 C 86.499 364.851,86.883 365.110,87.250 365.331 C 87.617 365.552,87.954 365.779,88.000 365.835 C 88.046 365.892,88.683 366.327,89.417 366.802 C 90.150 367.277,90.862 367.743,91.000 367.837 C 92.249 368.695,100.087 373.479,100.500 373.635 C 100.638 373.687,101.284 374.053,101.938 374.448 C 102.591 374.843,103.204 375.167,103.299 375.167 C 103.394 375.167,103.497 375.223,103.528 375.292 C 103.623 375.506,113.515 380.528,116.917 382.090 C 118.967 383.031,120.030 383.500,120.111 383.500 C 120.160 383.500,120.436 383.606,120.725 383.737 C 121.014 383.867,121.738 384.193,122.335 384.463 C 122.931 384.732,123.606 385.009,123.835 385.080 C 124.063 385.150,124.325 385.261,124.417 385.327 C 124.508 385.392,125.071 385.620,125.667 385.833 C 126.263 386.047,126.825 386.271,126.917 386.333 C 127.008 386.395,127.871 386.729,128.833 387.075 C 129.796 387.422,130.820 387.809,131.109 387.936 C 131.397 388.063,131.717 388.167,131.819 388.167 C 131.921 388.167,132.135 388.242,132.294 388.334 C 132.729 388.586,142.153 391.667,142.488 391.667 C 142.647 391.667,142.834 391.723,142.903 391.792 C 142.971 391.860,143.378 392.004,143.805 392.112 C 145.547 392.549,146.099 392.702,146.417 392.835 C 146.732 392.966,149.044 393.576,151.250 394.109 C 151.800 394.242,152.700 394.460,153.250 394.594 C 154.176 394.820,154.688 394.936,157.667 395.596 C 159.590 396.022,163.360 396.756,165.417 397.105 C 172.712 398.342,178.813 399.087,185.000 399.497 C 186.421 399.591,188.558 399.743,189.750 399.834 C 192.558 400.050,207.442 400.050,210.250 399.834 C 211.442 399.743,213.579 399.591,215.000 399.497 C 225.139 398.825,236.617 397.050,246.875 394.565 C 249.272 393.985,249.858 393.840,251.500 393.421 C 252.463 393.175,253.400 392.911,253.583 392.835 C 253.901 392.702,254.453 392.549,256.195 392.112 C 256.622 392.004,257.029 391.860,257.097 391.792 C 257.166 391.723,257.354 391.667,257.515 391.667 C 257.817 391.667,268.006 388.323,268.909 387.928 C 269.188 387.805,270.204 387.422,271.167 387.075 C 272.129 386.729,272.992 386.395,273.083 386.335 C 273.175 386.274,273.625 386.089,274.083 385.924 C 274.542 385.759,275.142 385.525,275.417 385.403 C 275.692 385.281,276.292 385.036,276.750 384.857 C 277.208 384.679,278.083 384.300,278.694 384.016 C 279.304 383.732,279.843 383.500,279.890 383.500 C 279.970 383.500,280.733 383.164,283.230 382.029 C 286.426 380.575,296.020 375.682,297.855 374.569 C 298.371 374.256,298.878 374.000,298.980 374.000 C 299.083 374.000,299.167 373.925,299.167 373.833 C 299.167 373.742,299.248 373.667,299.347 373.667 C 299.598 373.667,308.424 368.319,308.951 367.847 C 309.062 367.748,309.190 367.667,309.235 367.667 C 309.333 367.667,313.335 364.999,313.605 364.754 C 313.708 364.660,313.933 364.487,314.105 364.370 C 315.236 363.597,317.543 361.977,317.713 361.836 C 317.825 361.742,319.039 360.830,320.411 359.809 C 321.783 358.787,322.999 357.869,323.114 357.767 C 323.228 357.666,323.418 357.508,323.536 357.415 C 323.654 357.323,324.275 356.837,324.917 356.336 C 325.558 355.835,326.121 355.383,326.167 355.332 C 326.212 355.281,326.622 354.941,327.077 354.578 C 327.531 354.214,328.024 353.804,328.173 353.667 C 328.321 353.529,328.662 353.236,328.930 353.014 C 329.896 352.216,332.385 350.066,332.998 349.500 C 333.147 349.363,333.639 348.921,334.093 348.518 C 338.236 344.838,344.838 338.236,348.518 334.093 C 348.921 333.639,349.363 333.147,349.500 332.998 C 350.066 332.385,352.216 329.896,353.014 328.930 C 353.236 328.662,353.529 328.321,353.667 328.173 C 353.804 328.024,354.214 327.531,354.578 327.077 C 354.941 326.622,355.281 326.212,355.332 326.167 C 355.383 326.121,355.834 325.558,356.335 324.917 C 356.836 324.275,357.322 323.659,357.415 323.547 C 357.507 323.436,357.672 323.239,357.780 323.109 C 357.888 322.979,358.806 321.758,359.821 320.395 C 360.836 319.032,361.742 317.825,361.836 317.713 C 361.977 317.543,363.597 315.236,364.370 314.105 C 364.487 313.933,364.660 313.708,364.753 313.605 C 364.846 313.501,365.541 312.479,366.297 311.333 C 367.053 310.188,367.748 309.137,367.840 309.000 C 368.832 307.528,373.482 299.905,373.635 299.500 C 373.687 299.362,374.053 298.716,374.448 298.062 C 374.843 297.409,375.167 296.796,375.167 296.701 C 375.167 296.606,375.223 296.503,375.292 296.472 C 375.506 296.377,380.528 286.485,382.090 283.083 C 383.031 281.033,383.500 279.970,383.500 279.889 C 383.500 279.840,383.606 279.564,383.737 279.275 C 383.867 278.986,384.193 278.262,384.463 277.665 C 384.732 277.069,385.009 276.394,385.080 276.165 C 385.150 275.937,385.261 275.675,385.327 275.583 C 385.392 275.492,385.620 274.929,385.833 274.333 C 386.047 273.737,386.271 273.175,386.333 273.083 C 386.395 272.992,386.729 272.129,387.075 271.167 C 387.422 270.204,387.809 269.180,387.936 268.891 C 388.063 268.603,388.167 268.283,388.167 268.181 C 388.167 268.079,388.242 267.865,388.334 267.706 C 388.586 267.271,391.667 257.847,391.667 257.512 C 391.667 257.353,391.723 257.166,391.792 257.097 C 391.860 257.029,392.004 256.622,392.112 256.195 C 392.549 254.453,392.702 253.901,392.835 253.583 C 392.964 253.274,393.552 251.048,394.100 248.792 C 394.855 245.688,394.802 245.914,395.596 242.333 C 396.022 240.410,396.756 236.640,397.105 234.583 C 398.342 227.288,399.087 221.187,399.497 215.000 C 399.591 213.579,399.743 211.442,399.834 210.250 C 399.926 209.058,400.001 204.446,400.001 200.000 C 400.001 195.554,399.926 190.942,399.834 189.750 C 399.743 188.558,399.591 186.421,399.497 185.000 C 399.226 180.911,398.853 177.333,398.098 171.583 C 397.966 170.575,397.817 169.637,397.766 169.500 C 397.716 169.362,397.598 168.688,397.504 168.000 C 397.410 167.313,397.220 166.112,397.082 165.333 C 396.944 164.554,396.787 163.654,396.733 163.333 C 396.679 163.012,396.566 162.412,396.483 162.000 C 396.400 161.587,396.220 160.688,396.084 160.000 C 395.758 158.359,395.440 156.870,395.086 155.333 C 394.204 151.511,393.046 146.922,392.835 146.417 C 392.702 146.099,392.549 145.547,392.112 143.805 C 392.004 143.378,391.860 142.971,391.792 142.903 C 391.723 142.834,391.667 142.645,391.667 142.483 C 391.667 142.321,391.580 141.977,391.475 141.719 C 391.369 141.461,391.256 141.116,391.224 140.951 C 391.139 140.511,388.376 132.252,388.013 131.353 C 387.842 130.930,387.460 129.908,387.163 129.083 C 386.867 128.258,386.457 127.208,386.253 126.750 C 386.049 126.292,385.786 125.617,385.669 125.250 C 385.552 124.883,385.404 124.508,385.340 124.417 C 385.276 124.325,385.086 123.875,384.917 123.417 C 384.748 122.958,384.361 122.048,384.055 121.394 C 383.750 120.740,383.500 120.164,383.500 120.114 C 383.500 120.030,383.172 119.286,382.029 116.770 C 380.840 114.157,376.184 104.946,375.862 104.571 C 375.777 104.472,375.652 104.216,375.584 104.002 C 375.516 103.789,375.132 103.073,374.730 102.411 C 374.329 101.749,374.000 101.124,374.000 101.021 C 374.000 100.918,373.925 100.833,373.833 100.833 C 373.742 100.833,373.667 100.721,373.667 100.583 C 373.667 100.446,373.592 100.333,373.500 100.333 C 373.408 100.333,373.352 100.277,373.374 100.208 C 373.432 100.033,368.349 91.610,367.847 91.049 C 367.748 90.938,367.667 90.810,367.667 90.765 C 367.667 90.667,364.999 86.665,364.754 86.395 C 364.660 86.292,364.487 86.067,364.370 85.895 C 363.597 84.764,361.977 82.457,361.836 82.287 C 361.742 82.175,360.830 80.961,359.809 79.589 C 358.787 78.217,357.869 77.001,357.767 76.886 C 357.666 76.772,357.508 76.582,357.415 76.464 C 357.323 76.346,356.837 75.725,356.336 75.083 C 355.835 74.442,355.383 73.879,355.332 73.833 C 355.281 73.787,354.941 73.378,354.578 72.923 C 354.214 72.469,353.804 71.976,353.667 71.827 C 353.529 71.679,353.267 71.374,353.083 71.150 C 352.578 70.532,350.950 68.630,350.667 68.327 C 350.310 67.945,349.369 66.887,348.523 65.917 C 345.667 62.642,335.747 52.670,334.698 52.019 C 334.607 51.963,333.982 51.420,333.308 50.813 C 331.452 49.141,330.335 48.161,329.343 47.333 C 328.848 46.921,328.322 46.471,328.173 46.333 C 328.025 46.196,327.531 45.786,327.077 45.422 C 326.622 45.059,326.212 44.719,326.167 44.668 C 326.121 44.617,325.558 44.166,324.917 43.665 C 324.275 43.164,323.659 42.678,323.547 42.585 C 323.436 42.493,323.249 42.338,323.131 42.242 C 323.013 42.146,321.792 41.227,320.417 40.200 C 319.042 39.174,317.825 38.257,317.713 38.164 C 317.543 38.023,315.229 36.398,314.105 35.630 C 313.933 35.513,313.708 35.339,313.605 35.244 C 313.501 35.149,313.117 34.890,312.750 34.669 C 312.383 34.448,312.046 34.221,312.000 34.165 C 311.954 34.108,311.317 33.673,310.583 33.198 C 309.850 32.723,309.137 32.257,309.000 32.163 C 307.751 31.305,299.913 26.521,299.500 26.365 C 299.362 26.313,298.716 25.947,298.062 25.552 C 297.409 25.157,296.796 24.833,296.701 24.833 C 296.606 24.833,296.503 24.777,296.472 24.708 C 296.377 24.494,286.666 19.565,283.083 17.912 C 281.177 17.033,279.971 16.500,279.889 16.500 C 279.840 16.500,279.564 16.394,279.275 16.263 C 278.986 16.133,278.262 15.807,277.665 15.537 C 277.069 15.268,276.394 14.991,276.165 14.920 C 275.937 14.850,275.675 14.739,275.583 14.673 C 275.492 14.608,274.929 14.380,274.333 14.167 C 273.737 13.953,273.175 13.729,273.083 13.667 C 272.992 13.605,272.129 13.271,271.167 12.925 C 270.204 12.578,269.180 12.191,268.891 12.064 C 268.603 11.937,268.283 11.833,268.181 11.833 C 268.079 11.833,267.865 11.760,267.706 11.670 C 267.419 11.508,260.829 9.316,258.583 8.636 C 257.942 8.442,257.267 8.226,257.083 8.156 C 256.900 8.086,256.431 7.947,256.042 7.848 C 255.652 7.748,255.015 7.585,254.625 7.486 C 254.235 7.386,253.767 7.242,253.583 7.165 C 253.268 7.034,250.956 6.424,248.750 5.891 C 248.200 5.758,247.300 5.540,246.750 5.406 C 246.200 5.272,245.225 5.046,244.583 4.903 C 243.942 4.761,242.929 4.536,242.333 4.404 C 234.066 2.569,223.567 1.071,215.000 0.503 C 213.579 0.409,211.442 0.257,210.250 0.166 C 207.737 -0.028,191.839 -0.017,189.500 0.179 M268.481 72.838 C 286.749 74.231,300.108 86.769,302.246 104.527 C 302.743 108.658,302.312 115.064,301.340 118.000 C 301.264 118.229,301.033 119.017,300.826 119.750 C 299.300 125.170,295.695 131.324,291.551 135.588 C 290.835 136.323,287.400 139.208,283.917 141.997 C 280.433 144.786,274.021 149.921,269.667 153.406 C 265.313 156.892,261.712 159.784,261.667 159.834 C 261.621 159.884,259.708 161.430,257.417 163.269 C 255.125 165.108,251.075 168.361,248.417 170.496 C 245.758 172.632,240.808 176.598,237.417 179.309 C 234.025 182.021,231.213 184.281,231.167 184.332 C 231.121 184.383,229.208 185.929,226.917 187.767 C 224.625 189.605,220.575 192.858,217.917 194.996 C 215.258 197.133,211.283 200.328,209.083 202.095 C 206.883 203.862,203.396 206.672,201.333 208.339 C 199.271 210.007,194.246 214.042,190.167 217.307 C 186.088 220.572,182.713 223.284,182.667 223.334 C 182.621 223.384,182.058 223.834,181.417 224.333 C 180.775 224.833,180.213 225.285,180.167 225.338 C 180.078 225.441,168.847 234.462,158.500 242.742 C 155.063 245.493,152.212 247.784,152.167 247.834 C 152.121 247.884,151.558 248.334,150.917 248.833 C 150.275 249.333,149.712 249.785,149.667 249.838 C 149.585 249.933,139.066 258.384,129.250 266.242 C 126.500 268.443,124.212 270.285,124.167 270.334 C 124.121 270.384,123.559 270.835,122.918 271.337 C 122.276 271.839,121.601 272.374,121.418 272.525 C 121.234 272.676,120.619 273.181,120.052 273.647 C 118.646 274.803,116.481 277.443,115.526 279.167 C 107.096 294.378,115.223 310.846,131.976 312.497 C 134.373 312.733,263.159 312.728,265.917 312.492 C 282.669 311.056,293.837 300.043,293.880 284.917 C 293.926 268.971,281.751 257.763,263.639 257.075 C 259.664 256.924,258.250 256.437,256.598 254.654 C 252.975 250.740,254.441 244.738,259.500 242.774 C 261.806 241.879,269.540 242.510,275.764 244.101 C 298.923 250.023,312.316 270.716,307.732 293.495 C 305.061 306.770,295.619 318.027,282.744 323.285 C 280.371 324.255,278.258 324.952,275.333 325.729 C 274.473 325.958,272.139 326.404,269.667 326.812 C 266.586 327.320,261.892 327.350,196.500 327.283 C 153.113 327.239,130.270 327.158,129.667 327.047 C 129.162 326.955,128.188 326.787,127.500 326.675 C 102.942 322.659,90.210 296.152,101.962 273.507 C 104.034 269.515,107.566 264.910,110.167 262.808 C 111.034 262.108,114.162 259.592,125.167 250.748 C 127.779 248.648,132.579 244.794,135.833 242.184 C 139.087 239.573,143.625 235.929,145.917 234.085 C 150.689 230.246,158.580 223.908,166.667 217.417 C 169.737 214.952,174.125 211.428,176.417 209.584 C 178.708 207.741,183.658 203.766,187.417 200.751 C 191.175 197.736,194.850 194.773,195.583 194.167 C 196.779 193.179,201.702 189.221,216.917 177.016 C 219.575 174.883,222.012 172.927,222.333 172.668 C 226.099 169.628,241.736 157.071,247.667 152.324 C 250.463 150.087,252.787 148.215,252.833 148.166 C 252.879 148.117,254.379 146.906,256.167 145.476 C 257.954 144.047,262.567 140.345,266.417 137.250 C 270.267 134.155,275.067 130.302,277.084 128.687 C 282.528 124.328,284.852 121.330,286.465 116.583 C 291.312 102.325,282.979 89.060,268.202 87.513 C 265.861 87.268,137.107 87.263,134.250 87.508 C 117.268 88.964,106.153 99.928,106.170 115.208 C 106.187 131.111,118.344 142.250,136.426 142.930 C 140.310 143.076,141.770 143.564,143.432 145.275 C 147.520 149.481,145.025 156.638,139.154 157.547 C 137.168 157.855,131.002 157.353,127.167 156.571 C 109.300 152.933,97.167 142.008,92.657 125.500 C 89.695 114.657,92.002 101.404,98.536 91.722 C 102.729 85.510,110.083 79.613,117.251 76.715 C 122.627 74.541,128.355 73.197,133.750 72.845 C 136.862 72.642,265.823 72.635,268.481 72.838 M224.827 108.217 C 233.536 110.923,237.641 119.415,234.352 127.921 C 233.193 130.919,232.119 132.100,226.417 136.645 C 223.942 138.618,219.179 142.415,215.833 145.083 C 209.133 150.427,201.534 156.482,194.500 162.083 C 191.979 164.090,187.179 167.915,183.833 170.584 C 171.599 180.341,166.159 184.676,162.000 187.984 C 159.662 189.843,157.487 191.575,157.167 191.833 C 155.772 192.953,137.486 207.527,128.333 214.813 C 125.629 216.966,121.804 220.016,119.833 221.591 C 115.692 224.900,114.873 225.409,113.219 225.692 C 108.704 226.466,104.746 223.190,104.753 218.682 C 104.758 214.916,104.829 214.830,113.573 207.858 C 117.429 204.784,123.133 200.235,126.250 197.749 C 131.639 193.451,136.621 189.482,147.667 180.684 C 150.371 178.531,155.321 174.585,158.667 171.917 C 165.330 166.603,172.901 160.569,180.000 154.917 C 182.521 152.910,187.321 149.085,190.667 146.416 C 200.085 138.905,207.851 132.717,212.417 129.087 C 214.708 127.264,217.482 125.055,218.580 124.178 L 220.576 122.583 188.413 122.500 L 156.250 122.417 155.337 122.043 C 148.398 119.205,149.131 109.634,156.417 107.946 C 157.552 107.683,223.955 107.946,224.827 108.217 M289.700 174.351 C 293.643 175.176,296.242 179.337,295.237 183.216 C 294.624 185.584,294.295 185.925,287.012 191.738 C 278.391 198.619,266.296 208.251,264.918 209.334 C 264.276 209.838,263.601 210.375,263.418 210.528 C 262.599 211.208,234.751 233.396,232.917 234.830 C 232.275 235.332,231.713 235.783,231.667 235.833 C 231.621 235.884,231.059 236.335,230.418 236.837 C 229.776 237.339,229.101 237.875,228.918 238.028 C 228.114 238.696,202.755 258.895,200.917 260.331 C 200.275 260.832,199.713 261.283,199.667 261.333 C 199.621 261.384,199.059 261.835,198.418 262.337 C 197.776 262.839,197.101 263.375,196.918 263.528 C 196.565 263.822,184.326 273.587,181.287 276.000 L 179.502 277.417 211.626 277.500 C 236.623 277.565,243.878 277.630,244.328 277.791 C 251.434 280.335,251.245 290.044,244.053 291.917 C 242.858 292.229,178.410 292.297,176.500 291.989 C 165.262 290.177,160.660 275.920,168.628 267.600 C 169.395 266.800,176.320 261.174,182.083 256.670 C 182.725 256.168,183.287 255.717,183.333 255.667 C 183.379 255.616,183.941 255.165,184.582 254.663 C 185.224 254.161,185.899 253.625,186.082 253.472 C 186.886 252.804,212.245 232.605,214.083 231.169 C 214.725 230.668,215.287 230.217,215.333 230.167 C 215.379 230.116,215.941 229.665,216.582 229.163 C 217.224 228.661,217.899 228.125,218.082 227.972 C 218.593 227.547,235.713 213.898,244.583 206.843 C 247.150 204.802,249.512 202.922,249.833 202.666 C 250.154 202.410,253.417 199.806,257.083 196.880 C 267.195 188.810,279.275 179.193,280.583 178.170 C 281.225 177.668,281.787 177.215,281.833 177.163 C 283.733 174.999,287.079 173.803,289.700 174.351 " stroke="none" fill="#040404" fill-rule="evenodd"></path><path id="path2" d="M291.993 83.208 C 292.684 83.944,292.833 84.077,292.833 83.951 C 292.833 83.925,292.477 83.568,292.042 83.160 L 291.250 82.417 291.993 83.208 M235.375 122.250 C 235.377 122.617,235.411 122.747,235.451 122.540 C 235.491 122.332,235.490 122.032,235.448 121.873 C 235.406 121.714,235.374 121.883,235.375 122.250 M136.460 157.618 C 136.668 157.658,136.968 157.656,137.127 157.615 C 137.286 157.573,137.117 157.540,136.750 157.542 C 136.383 157.544,136.253 157.578,136.460 157.618 M261.788 242.454 C 262.084 242.490,262.609 242.491,262.955 242.455 C 263.300 242.419,263.058 242.389,262.417 242.388 C 261.775 242.387,261.492 242.417,261.788 242.454 M179.333 277.542 C 179.333 277.610,193.602 277.648,211.042 277.626 C 228.481 277.604,237.612 277.566,231.333 277.543 C 200.957 277.429,179.333 277.429,179.333 277.542 M97.548 291.250 C 97.549 291.708,97.581 291.876,97.620 291.623 C 97.658 291.369,97.657 290.994,97.617 290.789 C 97.578 290.584,97.546 290.792,97.548 291.250 M296.744 313.875 L 295.917 314.750 296.792 313.923 C 297.273 313.468,297.667 313.074,297.667 313.048 C 297.667 312.924,297.512 313.062,296.744 313.875 M263.042 327.282 C 263.202 327.323,263.465 327.323,263.625 327.282 C 263.785 327.240,263.654 327.205,263.333 327.205 C 263.012 327.205,262.881 327.240,263.042 327.282 " stroke="none" fill="#1c4667" fill-rule="evenodd"></path><path id="path3" d="M168.945 72.792 C 186.744 72.815,215.919 72.815,233.778 72.792 C 251.638 72.768,237.075 72.749,201.417 72.749 C 165.758 72.749,151.146 72.768,168.945 72.792 M169.458 87.292 C 187.173 87.315,216.160 87.315,233.875 87.292 C 251.590 87.268,237.096 87.249,201.667 87.249 C 166.237 87.249,151.744 87.268,169.458 87.292 M287.892 108.667 C 287.892 109.446,287.920 109.765,287.955 109.375 C 287.990 108.985,287.990 108.348,287.955 107.958 C 287.920 107.569,287.892 107.888,287.892 108.667 M302.387 108.667 C 302.387 109.263,302.417 109.506,302.454 109.208 C 302.491 108.910,302.491 108.423,302.454 108.125 C 302.417 107.827,302.387 108.071,302.387 108.667 M173.362 107.958 C 182.315 107.982,197.015 107.982,206.028 107.958 C 215.042 107.935,207.717 107.915,189.750 107.915 C 171.783 107.915,164.409 107.934,173.362 107.958 M150.545 115.167 C 150.545 115.579,150.578 115.748,150.618 115.542 C 150.657 115.335,150.657 114.998,150.618 114.792 C 150.578 114.585,150.545 114.754,150.545 115.167 M173.542 122.458 C 182.227 122.482,196.440 122.482,205.125 122.458 C 213.810 122.434,206.704 122.415,189.333 122.415 C 171.963 122.415,164.856 122.434,173.542 122.458 M231.073 132.708 L 230.583 133.250 231.125 132.760 C 231.630 132.304,231.743 132.167,231.615 132.167 C 231.586 132.167,231.342 132.410,231.073 132.708 M137.711 143.120 C 137.964 143.158,138.339 143.157,138.544 143.117 C 138.749 143.078,138.542 143.046,138.083 143.048 C 137.625 143.049,137.457 143.081,137.711 143.120 M137.542 157.615 C 137.702 157.657,137.965 157.657,138.125 157.615 C 138.285 157.573,138.154 157.539,137.833 157.539 C 137.512 157.539,137.381 157.573,137.542 157.615 M287.794 174.285 C 288.001 174.324,288.301 174.323,288.460 174.281 C 288.620 174.239,288.450 174.207,288.083 174.209 C 287.717 174.211,287.586 174.245,287.794 174.285 M111.627 225.785 C 111.834 225.824,112.134 225.823,112.294 225.781 C 112.453 225.739,112.283 225.707,111.917 225.709 C 111.550 225.711,111.420 225.745,111.627 225.785 M261.795 256.954 C 262.094 256.991,262.544 256.990,262.795 256.952 C 263.045 256.914,262.800 256.884,262.250 256.885 C 261.700 256.886,261.495 256.917,261.795 256.954 M168.833 288.083 C 169.144 288.404,169.436 288.667,169.482 288.667 C 169.528 288.667,169.311 288.404,169.000 288.083 C 168.689 287.762,168.397 287.500,168.351 287.500 C 168.305 287.500,168.522 287.762,168.833 288.083 M247.240 290.042 L 246.750 290.583 247.292 290.094 C 247.797 289.638,247.910 289.500,247.781 289.500 C 247.752 289.500,247.509 289.744,247.240 290.042 M112.042 291.250 C 112.044 291.617,112.078 291.747,112.118 291.540 C 112.158 291.332,112.156 291.032,112.115 290.873 C 112.073 290.714,112.040 290.883,112.042 291.250 M194.208 292.125 C 203.169 292.149,217.831 292.149,226.792 292.125 C 235.752 292.101,228.421 292.082,210.500 292.082 C 192.579 292.082,185.248 292.101,194.208 292.125 M166.305 312.792 C 184.119 312.815,213.219 312.815,230.972 312.792 C 248.725 312.768,234.150 312.749,198.583 312.749 C 163.017 312.749,148.492 312.768,166.305 312.792 M166.472 327.292 C 184.194 327.315,213.144 327.315,230.805 327.292 C 248.467 327.268,233.967 327.249,198.583 327.249 C 163.200 327.249,148.750 327.268,166.472 327.292 " stroke="none" fill="#2c647c" fill-rule="evenodd"></path><path id="path4" d="M103.079 86.208 L 101.917 87.417 103.125 86.254 C 103.790 85.615,104.333 85.072,104.333 85.046 C 104.333 84.924,104.158 85.086,103.079 86.208 M302.372 106.500 C 302.372 106.821,302.406 106.952,302.448 106.792 C 302.490 106.631,302.490 106.369,302.448 106.208 C 302.406 106.048,302.372 106.179,302.372 106.500 M302.372 110.833 C 302.372 111.154,302.406 111.285,302.448 111.125 C 302.490 110.965,302.490 110.702,302.448 110.542 C 302.406 110.381,302.372 110.513,302.372 110.833 M230.667 111.385 C 230.667 111.414,230.910 111.658,231.208 111.927 L 231.750 112.417 231.260 111.875 C 230.804 111.370,230.667 111.257,230.667 111.385 M106.050 115.167 C 106.050 115.671,106.081 115.877,106.119 115.625 C 106.158 115.373,106.158 114.960,106.119 114.708 C 106.081 114.456,106.050 114.662,106.050 115.167 M290.991 136.125 L 290.417 136.750 291.042 136.176 C 291.623 135.641,291.743 135.500,291.616 135.500 C 291.588 135.500,291.307 135.781,290.991 136.125 M295.387 181.500 C 295.387 182.096,295.417 182.340,295.454 182.042 C 295.491 181.744,295.491 181.256,295.454 180.958 C 295.417 180.660,295.387 180.904,295.387 181.500 M263.708 242.448 C 263.869 242.490,264.131 242.490,264.292 242.448 C 264.452 242.406,264.321 242.372,264.000 242.372 C 263.679 242.372,263.548 242.406,263.708 242.448 M254.545 249.667 C 254.545 250.079,254.578 250.248,254.618 250.042 C 254.657 249.835,254.657 249.498,254.618 249.292 C 254.578 249.085,254.545 249.254,254.545 249.667 M286.250 266.000 C 286.701 266.458,287.108 266.833,287.154 266.833 C 287.200 266.833,286.868 266.458,286.417 266.000 C 285.965 265.542,285.558 265.167,285.513 265.167 C 285.467 265.167,285.799 265.542,286.250 266.000 M308.548 284.917 C 308.549 285.375,308.581 285.543,308.620 285.289 C 308.658 285.036,308.657 284.661,308.617 284.456 C 308.578 284.251,308.546 284.458,308.548 284.917 M249.539 284.833 C 249.539 285.154,249.573 285.285,249.615 285.125 C 249.657 284.965,249.657 284.702,249.615 284.542 C 249.573 284.381,249.539 284.512,249.539 284.833 M97.548 289.750 C 97.549 290.208,97.581 290.376,97.620 290.123 C 97.658 289.869,97.657 289.494,97.617 289.289 C 97.578 289.084,97.546 289.292,97.548 289.750 M97.548 292.750 C 97.549 293.208,97.581 293.376,97.620 293.123 C 97.658 292.869,97.657 292.494,97.617 292.289 C 97.578 292.084,97.546 292.292,97.548 292.750 M107.333 316.219 C 107.333 316.248,107.577 316.491,107.875 316.760 L 108.417 317.250 107.927 316.708 C 107.471 316.203,107.333 316.090,107.333 316.219 " stroke="none" fill="#0f2637" fill-rule="evenodd"></path></g></svg>